<?xml version="1.0" encoding="UTF-8" standalone="no"?>
<!-- Created with Inkscape (http://www.inkscape.org/) -->

<svg
   version="1.1"
   id="svg2"
   width="2933.3333"
   height="2933.3333"
   viewBox="0 0 2933.3333 2933.3333"
   sodipodi:docname="green_leaf_recycle_sign.eps"
   xmlns:inkscape="http://www.inkscape.org/namespaces/inkscape"
   xmlns:sodipodi="http://sodipodi.sourceforge.net/DTD/sodipodi-0.dtd"
   xmlns="http://www.w3.org/2000/svg"
   xmlns:svg="http://www.w3.org/2000/svg">
  <defs
     id="defs6" />
  <sodipodi:namedview
     id="namedview4"
     pagecolor="#ffffff"
     bordercolor="#000000"
     borderopacity="0.25"
     inkscape:showpageshadow="2"
     inkscape:pageopacity="0.0"
     inkscape:pagecheckerboard="0"
     inkscape:deskcolor="#d1d1d1" />
  <g
     id="g8"
     inkscape:groupmode="layer"
     inkscape:label="ink_ext_XXXXXX"
     transform="matrix(1.3333333,0,0,-1.3333333,0,2933.3333)">
    <g
       id="g10"
       transform="scale(0.1)">
      <path
         d="M 22000,0 H 0 V 22000 H 22000 V 0"
         style="fill:#ffffff;fill-opacity:1;fill-rule:nonzero;stroke:none"
         id="path12" />
      <path
         d="m 16694.6,15176.2 c 0,0 -1972.1,819 -4255.4,-958.3 -1852.1,-1441.6 -4271.71,-1249.6 -5374.21,280.9 -348.99,-239.6 -839.9,-654.5 -1386,-1348.6 -113.3,-143.8 -329,-151.1 -451.9,-15.3 l -208.8,230.6 c -99.5,109.8 -102.6,276.5 -6.8,389.7 615.6,726.9 1617.9,1719.8 2544.2,2172.3 2733.01,1335.2 4972.11,932.4 4998.81,927.7 -21.3,13.3 -1927.8,1196.1 -6054.31,-856.5 -25.6,211.6 -34.7,434.7 -25.6,668.9 64.1,1661.8 2124.3,3837.3 5011.61,3270.9 3823.3,-750.2 5208.4,-4762.3 5208.4,-4762.3"
         style="fill:#5fc34a;fill-opacity:1;fill-rule:nonzero;stroke:none"
         id="path14" />
      <path
         d="m 19069.9,3378.9 c -3023.5,-2457.4 -6992.7,-953.7 -6992.7,-953.7 0,0 1891.6,991.1 1987.4,3882.9 77.9,2345.8 1774.1,4081.9 3655.7,3949.4 39.3,421.5 34.6,1064.3 -149.1,1928.1 -37.9,179.1 94.6,349.5 277.5,357 l 310.9,12.9 c 148.1,6.1 278.1,-98.2 303.7,-244.3 164.5,-938.3 285.8,-2343.8 40.6,-3345.2 -723.5,-2954.4 -2466,-4416.9 -2486.7,-4434.3 23.9,7.7 2152.9,715.5 3217,5199.8 179,-115.8 356.2,-251.6 530.4,-408.6 1235.7,-1112.8 1588.6,-4088.2 -694.7,-5944"
         style="fill:#5fc34a;fill-opacity:1;fill-rule:nonzero;stroke:none"
         id="path16" />
      <path
         d="m 10003.5,2862.4 -136.71,-279.5 c -65.3,-133 -218.9,-197.7 -359.5,-150.6 -903.3,302.5 -2196.9,865.6 -2960.4,1558.3 -2252.8,2043.9 -2708.2,4272.8 -2713.7,4299.2 -4.6,-24.6 -396.8,-2233.8 3038.7,-5306 -187.1,-102.1 -391,-193.3 -611.9,-271.6 -1567.2,-556.2 -4351.3,551.4 -4894.9,3443 -719.797,3829.1 2493.6,6602.3 2493.6,6602.3 0,0 -30,-2135.3 2466.7,-3597.5 2025.3,-1186.2 2743.4,-3504.8 1730.3,-5095.8 351.9,-235.5 919.2,-537.7 1766.2,-787.7 175.6,-52 262.21,-249.7 181.61,-414.1"
         style="fill:#5fc34a;fill-opacity:1;fill-rule:nonzero;stroke:none"
         id="path18" />
    </g>
  </g>
</svg>
