<?xml version="1.0" encoding="UTF-8" standalone="no"?>
<!DOCTYPE svg PUBLIC "-//W3C//DTD SVG 1.1//EN" "http://www.w3.org/Graphics/SVG/1.1/DTD/svg11.dtd">
<!-- Created with Vectornator (http://vectornator.io/) -->
<svg height="100%" stroke-miterlimit="10" style="fill-rule:nonzero;clip-rule:evenodd;stroke-linecap:round;stroke-linejoin:round;" version="1.1" viewBox="0 0 200 200" width="100%" xml:space="preserve" xmlns="http://www.w3.org/2000/svg" xmlns:vectornator="http://vectornator.io" xmlns:xlink="http://www.w3.org/1999/xlink">
<defs/>
<clipPath id="ArtboardFrame">
<rect height="200" width="200" x="0" y="0"/>
</clipPath>
<g clip-path="url(#ArtboardFrame)" id="Untitled" vectornator:layerName="Untitled">
<g opacity="1" vectornator:layerName="g">
<g opacity="1" vectornator:layerName="Group 1">
<path d="M64.95 38.2381L61.35 41.9381L65.65 45.6381C75.95 54.4381 92.65 59.4381 105.75 57.5381C109.75 57.0381 113.05 56.6381 113.25 56.7381C113.35 56.8381 112.35 59.4381 110.95 62.5381C108.55 68.1381 108.35 68.2381 104.25 68.3381C86.05 68.9381 72.25 64.6381 60.25 54.9381C57.05 52.3381 54.15 50.2381 53.65 50.2381C52.15 50.2381 46.25 57.0381 46.85 58.0381C47.15 58.6381 50.25 61.2381 53.75 63.8381C66.15 73.2381 83.15 79.2381 97.25 79.2381L104.75 79.2381L104.05 82.9381C103.75 85.0381 103.45 87.6381 103.45 88.6381C103.45 90.4381 102.85 90.5381 94.25 89.9381C75.25 88.6381 58.75 81.8381 43.15 68.8381L38.35 64.8381L34.85 68.3381L31.35 71.8381L35.65 78.3381C41.25 86.5381 43.45 93.5381 43.45 102.738C43.45 112.138 40.65 121.238 35.35 128.738L31.25 134.538L34.95 138.138L38.55 141.738L41.85 137.938C51.75 126.738 56.85 107.138 53.55 92.9381C53.05 90.9381 52.85 89.2381 53.05 89.2381C53.25 89.2381 55.85 90.4381 58.95 91.9381C65.35 95.1381 66.15 97.1381 65.05 108.038C63.65 122.038 58.95 133.938 51.05 143.638L46.25 149.438L50.15 153.438L54.05 157.338L58.85 151.538C64.55 144.538 71.65 130.138 73.85 121.038C74.75 117.438 75.65 110.738 75.75 106.338C75.85 101.838 76.05 98.2381 76.15 98.2381C76.25 98.2381 78.65 98.7381 81.55 99.3381L86.75 100.438L86.15 110.138C85.15 128.138 77.65 145.838 64.55 161.238L61.55 164.738L65.15 168.438L68.75 172.138L72.35 169.338C82.25 161.538 94.95 158.138 106.45 160.138C114.55 161.638 121.85 164.838 126.85 169.238L130.55 172.538L134.05 169.238C135.85 167.338 137.45 165.338 137.45 164.738C137.45 163.338 129.25 157.138 123.95 154.438C114.45 149.738 99.85 147.738 88.95 149.838L85.25 150.538L88.35 144.338L91.45 138.238L99.85 138.238C114.65 138.238 127.15 142.538 139.75 152.138L146.25 157.038L149.95 153.238L153.55 149.538L150.05 146.538C137.05 135.038 121.45 128.638 104.15 127.538C95.85 127.038 94.45 126.738 94.85 125.338C95.15 124.438 95.65 122.038 96.05 119.838L96.75 115.938L105.15 116.638C123.45 118.138 141.05 125.138 154.05 136.038L161.25 142.038L164.95 138.238L168.75 134.338L165.45 130.538C158.25 122.438 154.35 108.138 156.35 97.1381C157.55 89.9381 161.25 81.5381 165.35 76.3381L168.35 72.5381L164.65 68.9381L160.85 65.2381L158.25 67.9381C154.05 72.5381 150.55 78.7381 147.85 86.9381C145.45 93.9381 145.25 95.8381 145.65 105.938C145.85 112.138 145.95 117.238 145.75 117.238C145.65 117.238 143.05 116.038 139.95 114.538L134.45 111.838L134.45 103.738C134.45 88.9381 140.55 72.1381 149.55 61.9381L153.35 57.5381L149.35 53.6381L145.35 49.7381L142.35 53.2381C130.65 67.1381 123.45 86.1381 123.45 102.938L123.45 108.438L119.75 107.838C111.85 106.438 112.15 106.938 112.95 97.9381C114.55 80.0381 121.35 62.7381 132.25 49.1381L138.25 41.4381L135.05 38.3381C133.35 36.6381 131.45 35.2381 131.05 35.2381C130.55 35.2381 128.15 36.7381 125.55 38.6381C117.25 44.7381 111.25 46.6381 99.95 46.6381C88.25 46.6381 82.15 44.6381 73.85 38.3381L68.65 34.4381L64.95 38.2381Z" fill="#1947ba" fill-rule="nonzero" opacity="1" stroke="none" vectornator:layerName="path"/>
</g>
<path d="M21.3058 209.656C20.9058 210.256 21.0058 211.256 21.6058 211.856C22.2058 212.456 22.8058 212.456 23.3058 211.656C23.7058 211.056 23.6058 210.056 23.0058 209.456C22.4058 208.856 21.8058 208.856 21.3058 209.656Z" fill="#1947ba" fill-rule="nonzero" opacity="1" stroke="none" vectornator:layerName="path"/>
<path d="M25.3058 209.656C24.9058 210.256 25.0058 211.256 25.6058 211.856C26.2058 212.456 26.8058 212.456 27.3058 211.656C27.7058 211.056 27.6058 210.056 27.0058 209.456C26.4058 208.856 25.8058 208.856 25.3058 209.656Z" fill="#1947ba" fill-rule="nonzero" opacity="1" stroke="none" vectornator:layerName="path"/>
<path d="M55.8058 210.156C55.8058 210.956 56.5058 211.656 57.3058 211.656C58.1058 211.656 58.8058 210.956 58.8058 210.156C58.8058 209.356 58.1058 208.656 57.3058 208.656C56.5058 208.656 55.8058 209.356 55.8058 210.156Z" fill="#1947ba" fill-rule="nonzero" opacity="1" stroke="none" vectornator:layerName="path"/>
<path d="M104.306 209.656C103.906 210.256 104.006 211.256 104.606 211.856C105.206 212.456 105.806 212.456 106.306 211.656C106.706 211.056 106.606 210.056 106.006 209.456C105.406 208.856 104.806 208.856 104.306 209.656Z" fill="#1947ba" fill-rule="nonzero" opacity="1" stroke="none" vectornator:layerName="path"/>
<path d="M86.0058 211.056C86.1058 212.056 86.8058 212.756 87.3058 212.756C88.8058 212.656 88.5058 210.356 87.0058 209.856C86.1058 209.556 85.7058 210.056 86.0058 211.056Z" fill="#1947ba" fill-rule="nonzero" opacity="1" stroke="none" vectornator:layerName="path"/>
<path d="M65.8058 226.656C64.6058 227.356 64.6058 227.856 65.6058 228.856C66.5058 229.756 67.1058 229.756 68.0058 228.856C69.6058 227.256 67.8058 225.456 65.8058 226.656Z" fill="#1947ba" fill-rule="nonzero" opacity="1" stroke="none" vectornator:layerName="path"/>
<path d="M70.3058 226.656C69.9058 227.256 70.0058 228.256 70.6058 228.856C71.2058 229.456 71.8058 229.456 72.3058 228.656C72.7058 228.056 72.6058 227.056 72.0058 226.456C71.4058 225.856 70.8058 225.856 70.3058 226.656Z" fill="#1947ba" fill-rule="nonzero" opacity="1" stroke="none" vectornator:layerName="path"/>
<path d="M174.806 227.156C174.806 227.956 175.506 228.656 176.306 228.656C177.106 228.656 177.806 227.956 177.806 227.156C177.806 226.356 177.106 225.656 176.306 225.656C175.506 225.656 174.806 226.356 174.806 227.156Z" fill="#1947ba" fill-rule="nonzero" opacity="1" stroke="none" vectornator:layerName="path"/>
<path d="M60.0058 235.256C60.4058 237.356 62.2058 237.556 62.6058 235.356C62.8058 234.356 62.3058 233.656 61.3058 233.656C60.3058 233.656 59.8058 234.256 60.0058 235.256Z" fill="#1947ba" fill-rule="nonzero" opacity="1" stroke="none" vectornator:layerName="path"/>
<path d="M114.306 234.656C113.506 235.956 114.706 237.856 115.906 237.156C117.106 236.356 117.106 233.656 115.906 233.656C115.306 233.656 114.606 234.056 114.306 234.656Z" fill="#1947ba" fill-rule="nonzero" opacity="1" stroke="none" vectornator:layerName="path"/>
<path d="M157.006 235.256C157.406 237.356 159.206 237.556 159.606 235.356C159.806 234.356 159.306 233.656 158.306 233.656C157.306 233.656 156.806 234.256 157.006 235.256Z" fill="#1947ba" fill-rule="nonzero" opacity="1" stroke="none" vectornator:layerName="path"/>
<path d="M18.8058 241.656C18.8058 247.256 19.1058 248.656 20.3058 248.656C21.3058 248.656 21.8058 247.656 21.8058 245.356L21.9058 242.156L24.6058 245.456C26.1058 247.256 28.2058 248.656 29.2058 248.656C30.9058 248.656 30.8058 248.156 28.0058 245.356C26.2058 243.556 24.8058 241.656 24.8058 241.156C24.8058 240.656 26.0058 238.956 27.5058 237.456C31.0058 233.756 28.4058 233.656 24.6058 237.356L21.8058 240.056L21.8058 237.356C21.8058 235.656 21.3058 234.656 20.3058 234.656C19.1058 234.656 18.8058 236.056 18.8058 241.656Z" fill="#1947ba" fill-rule="nonzero" opacity="1" stroke="none" vectornator:layerName="path"/>
<path d="M31.8058 241.656C31.8058 247.256 32.1058 248.656 33.3058 248.656C34.4058 248.656 34.8058 247.556 34.8058 245.056C34.8058 241.956 35.1058 241.556 37.1058 241.856C38.8058 242.056 39.4058 242.956 39.6058 245.356C40.1058 249.956 41.8058 249.456 41.8058 244.756C41.8058 240.456 39.9058 238.156 36.8058 238.956C35.2058 239.356 34.8058 238.956 34.8058 237.056C34.8058 235.556 34.2058 234.656 33.3058 234.656C32.1058 234.656 31.8058 236.056 31.8058 241.656Z" fill="#1947ba" fill-rule="nonzero" opacity="1" stroke="none" vectornator:layerName="path"/>
<path d="M54.8058 241.656C54.8058 247.256 55.1058 248.656 56.3058 248.656C57.5058 248.656 57.8058 247.256 57.8058 241.656C57.8058 236.056 57.5058 234.656 56.3058 234.656C55.1058 234.656 54.8058 236.056 54.8058 241.656Z" fill="#1947ba" fill-rule="nonzero" opacity="1" stroke="none" vectornator:layerName="path"/>
<path d="M67.1058 236.656C66.8058 237.756 65.9058 238.656 65.2058 238.656C63.3058 238.656 63.4058 240.556 65.3058 241.256C66.2058 241.656 66.8058 243.156 66.8058 245.256C66.8058 247.656 67.3058 248.656 68.3058 248.656C69.3058 248.656 69.8058 247.656 69.8058 245.256C69.8058 242.956 70.4058 241.656 71.6058 241.156C73.2058 240.556 73.2058 240.456 71.4058 239.056C69.4058 237.656 69.4058 237.656 71.4058 236.156C73.2058 234.756 73.2058 234.756 70.5058 234.656C68.4058 234.656 67.5058 235.256 67.1058 236.656Z" fill="#1947ba" fill-rule="nonzero" opacity="1" stroke="none" vectornator:layerName="path"/>
<path d="M87.8058 240.456C87.8058 243.656 88.3058 246.756 89.0058 247.456C90.7058 249.156 96.4058 248.956 98.2058 247.056C100.406 244.956 100.506 234.656 98.3058 234.656C97.2058 234.656 96.8058 235.956 96.8058 240.056C96.8058 244.656 96.5058 245.656 94.8058 246.156C91.6058 247.156 90.8058 245.856 90.8058 240.056C90.8058 235.956 90.4058 234.656 89.3058 234.656C88.1058 234.656 87.8058 235.956 87.8058 240.456Z" fill="#1947ba" fill-rule="nonzero" opacity="1" stroke="none" vectornator:layerName="path"/>
<path d="M163.806 237.656C163.806 238.156 163.106 238.656 162.306 238.656C161.506 238.656 160.806 239.156 160.806 239.656C160.806 240.256 161.506 240.956 162.306 241.256C163.106 241.656 163.806 242.656 163.806 243.656C163.806 247.056 165.006 248.656 167.406 248.656C168.706 248.656 169.806 248.156 169.806 247.656C169.806 247.056 169.106 246.656 168.306 246.656C167.406 246.656 166.806 245.756 166.806 244.156C166.806 242.556 167.406 241.656 168.306 241.656C169.106 241.656 169.806 240.956 169.806 240.156C169.806 239.356 169.106 238.656 168.306 238.656C167.506 238.656 166.806 238.156 166.806 237.656C166.806 237.056 166.106 236.656 165.306 236.656C164.506 236.656 163.806 237.056 163.806 237.656Z" fill="#1947ba" fill-rule="nonzero" opacity="1" stroke="none" vectornator:layerName="path"/>
<path d="M45.5058 239.356C44.2058 240.556 44.8058 241.856 46.4058 241.256C47.3058 240.956 48.5058 240.956 49.1058 241.356C49.8058 241.856 49.1058 242.356 47.3058 242.656C44.9058 243.056 44.3058 243.656 44.3058 245.656C44.3058 247.856 44.8058 248.156 48.6058 248.456C52.8058 248.756 52.8058 248.756 52.8058 245.256C52.8058 243.356 52.1058 241.056 51.2058 240.256C49.6058 238.656 46.6058 238.156 45.5058 239.356ZM49.3058 245.656C49.0058 246.156 48.3058 246.656 47.7058 246.656C47.2058 246.656 46.8058 246.156 46.8058 245.656C46.8058 245.056 47.5058 244.656 48.4058 244.656C49.2058 244.656 49.6058 245.056 49.3058 245.656Z" fill="#1947ba" fill-rule="nonzero" opacity="1" stroke="none" vectornator:layerName="path"/>
<path d="M59.8058 243.656C59.8058 247.456 60.2058 248.656 61.3058 248.656C62.4058 248.656 62.8058 247.456 62.8058 243.656C62.8058 239.856 62.4058 238.656 61.3058 238.656C60.2058 238.656 59.8058 239.856 59.8058 243.656Z" fill="#1947ba" fill-rule="nonzero" opacity="1" stroke="none" vectornator:layerName="path"/>
<path d="M74.5058 239.356C73.2058 240.556 73.8058 241.856 75.4058 241.256C76.3058 240.956 77.5058 240.956 78.1058 241.356C78.8058 241.856 78.1058 242.356 76.3058 242.656C73.9058 243.056 73.3058 243.656 73.3058 245.656C73.3058 247.856 73.8058 248.156 77.6058 248.456C81.8058 248.756 81.8058 248.756 81.8058 245.256C81.8058 243.356 81.1058 241.056 80.2058 240.256C78.6058 238.656 75.6058 238.156 74.5058 239.356ZM78.8058 245.656C78.8058 246.156 78.1058 246.656 77.3058 246.656C76.5058 246.656 75.8058 246.156 75.8058 245.656C75.8058 245.056 76.5058 244.656 77.3058 244.656C78.1058 244.656 78.8058 245.056 78.8058 245.656Z" fill="#1947ba" fill-rule="nonzero" opacity="1" stroke="none" vectornator:layerName="path"/>
<path d="M101.806 243.756C101.806 247.456 102.206 248.656 103.306 248.656C104.306 248.656 104.806 247.556 104.806 245.156C104.806 242.356 105.206 241.656 106.806 241.656C108.406 241.656 108.806 242.356 108.806 245.156C108.806 247.556 109.306 248.656 110.306 248.656C111.406 248.656 111.806 247.556 111.806 244.756C111.806 240.056 110.506 238.856 105.606 238.856L101.806 238.856L101.806 243.756Z" fill="#1947ba" fill-rule="nonzero" opacity="1" stroke="none" vectornator:layerName="path"/>
<path d="M113.806 243.656C113.806 247.456 114.206 248.656 115.306 248.656C116.406 248.656 116.806 247.456 116.806 243.656C116.806 239.856 116.406 238.656 115.306 238.656C114.206 238.656 113.806 239.856 113.806 243.656Z" fill="#1947ba" fill-rule="nonzero" opacity="1" stroke="none" vectornator:layerName="path"/>
<path d="M120.106 243.656C121.306 246.356 122.806 248.656 123.506 248.656C124.206 248.656 125.606 246.556 126.806 244.056C129.206 238.556 129.206 238.656 127.406 238.656C126.706 238.656 125.506 240.056 124.806 241.756L123.506 244.856L122.206 241.756C121.506 240.056 120.206 238.656 119.406 238.656C118.206 238.656 118.306 239.556 120.106 243.656Z" fill="#1947ba" fill-rule="nonzero" opacity="1" stroke="none" vectornator:layerName="path"/>
<path d="M130.406 240.856C128.406 243.656 128.406 245.156 130.406 247.056C132.406 249.156 137.806 249.156 137.806 247.156C137.806 246.056 137.106 245.756 135.406 246.256C134.106 246.556 132.706 246.356 132.406 245.756C131.906 245.056 132.906 244.656 135.206 244.656C139.206 244.656 139.906 242.956 137.006 240.356C134.506 238.056 132.206 238.256 130.406 240.856ZM135.306 241.656C135.606 242.156 135.006 242.656 133.806 242.656C132.606 242.656 132.006 242.156 132.306 241.656C132.606 241.056 133.306 240.656 133.806 240.656C134.306 240.656 135.006 241.056 135.306 241.656Z" fill="#1947ba" fill-rule="nonzero" opacity="1" stroke="none" vectornator:layerName="path"/>
<path d="M140.806 243.856C140.806 246.456 141.306 248.656 141.806 248.656C142.406 248.656 142.806 247.356 142.806 245.656C142.806 243.756 143.506 242.356 144.806 241.656C147.706 240.056 147.206 238.756 143.806 238.856C140.906 238.956 140.806 239.156 140.806 243.856Z" fill="#1947ba" fill-rule="nonzero" opacity="1" stroke="none" vectornator:layerName="path"/>
<path d="M149.106 239.256C147.006 240.156 147.606 243.756 149.806 244.356C150.906 244.656 151.806 245.356 151.806 245.856C151.806 246.456 150.906 246.656 149.806 246.356C148.506 246.056 147.806 246.356 147.806 247.356C147.806 248.356 148.706 248.656 151.106 248.456C155.006 248.056 156.306 244.256 152.906 243.156C150.506 242.456 150.006 240.356 152.206 240.856C153.006 241.056 153.806 240.656 154.006 240.156C154.306 239.056 151.006 238.456 149.106 239.256Z" fill="#1947ba" fill-rule="nonzero" opacity="1" stroke="none" vectornator:layerName="path"/>
<path d="M156.806 243.656C156.806 247.456 157.206 248.656 158.306 248.656C159.406 248.656 159.806 247.456 159.806 243.656C159.806 239.856 159.406 238.656 158.306 238.656C157.206 238.656 156.806 239.856 156.806 243.656Z" fill="#1947ba" fill-rule="nonzero" opacity="1" stroke="none" vectornator:layerName="path"/>
<path d="M170.806 239.156C170.806 239.456 171.706 241.556 172.806 243.756C174.406 246.756 174.606 248.156 173.806 249.556C172.506 252.056 172.506 253.656 173.806 253.656C174.706 253.656 178.806 246.256 180.806 241.056C182.206 237.356 179.506 237.956 177.706 241.856L176.206 244.956L174.906 241.856C174.106 240.056 172.906 238.656 172.206 238.656C171.406 238.656 170.806 238.856 170.806 239.156Z" fill="#1947ba" fill-rule="nonzero" opacity="1" stroke="none" vectornator:layerName="path"/>
</g>
</g>
</svg>
